<?xml version="1.0" encoding="UTF-8"?>
<!DOCTYPE svg PUBLIC "-//W3C//DTD SVG 1.1//EN" "http://www.w3.org/Graphics/SVG/1.1/DTD/svg11.dtd">
<!-- Creator: CorelDRAW X5 -->
<svg xmlns="http://www.w3.org/2000/svg" xml:space="preserve" width="129.861mm" height="130mm" style="shape-rendering:geometricPrecision; text-rendering:geometricPrecision; image-rendering:optimizeQuality; fill-rule:evenodd; clip-rule:evenodd"
viewBox="0 0 12986 13000"
 xmlns:xlink="http://www.w3.org/1999/xlink"
 xmlns:svg="http://www.w3.org/2000/svg">
 <defs>
  <style type="text/css">
   <![CDATA[
    .fil6 {fill:none}
    .fil9 {fill:#332C2B}
    .fil4 {fill:#FEFEFE}
    .fil1 {fill:#FFF000}
    .fil8 {fill:black}
    .fil0 {fill:#000094}
    .fil3 {fill:#008131}
    .fil7 {fill:#EA3313}
    .fil2 {fill:#FFF100}
    .fil5 {fill:white}
   ]]>
  </style>
 </defs>
 <g id="Layer_x0020_1">
  <metadata id="CorelCorpID_0Corel-Layer"/>
 </g>
 <g id="svg2">
  <metadata id="CorelCorpID_1Corel-Layer"/>
  <path class="fil0" d="M10110 1695c521,-37 1156,332 1608,1269 393,815 666,1397 1129,1620 15,-5 18,5 3,10 -237,456 -105,1085 70,1973 203,1027 -87,1704 -530,1985l-1 1c185,488 15,1201 -750,1904 -666,612 -1144,1043 -1223,1550 9,13 0,19 -9,6 -505,-94 -1069,214 -1868,639 -921,491 -1652,411 -2050,71 -398,340 -1129,419 -2050,-71 -799,-426 -1363,-734 -1868,-639 -9,13 -18,7 -9,-6 -79,-507 -556,-937 -1223,-1550 -766,-704 -935,-1419 -749,-1907 -441,-282 -730,-959 -527,-1983 176,-888 307,-1517 70,-1973 -15,-5 -12,-15 3,-10 463,-222 736,-804 1129,-1620 454,-943 1093,-1310 1616,-1269l1 0c129,-507 679,-994 1714,-1126 898,-114 1536,-189 1894,-558 0,-16 11,-16 11,0 357,369 996,443 1894,558 1034,132 1585,619 1714,1126zm-106 141c506,-36 1122,322 1561,1232 381,792 646,1356 1096,1572 15,-5 18,5 3,10 -230,442 -102,1053 68,1915 197,997 -85,1654 -515,1927l-1 1c179,474 15,1166 -728,1848 -647,595 -1111,1012 -1187,1504 9,13 0,19 -9,6 -490,-91 -1037,207 -1813,621 -894,476 -1604,399 -1990,69 -386,330 -1096,407 -1990,-69 -775,-413 -1323,-712 -1813,-621 -9,13 -17,7 -9,-6 -76,-492 -540,-910 -1187,-1504 -744,-684 -908,-1377 -727,-1851 -428,-274 -709,-931 -512,-1925 170,-862 298,-1473 68,-1915 -15,-5 -11,-15 3,-10 449,-216 714,-781 1096,-1572 441,-915 1061,-1272 1569,-1232l1 0c125,-492 659,-965 1664,-1093 872,-111 1491,-184 1838,-542 0,-15 10,-15 10,0 347,358 967,430 1838,542 1004,128 1538,600 1663,1093z"/>
  <path class="fil1" d="M10004 1836c506,-36 1122,322 1561,1232 381,792 646,1356 1096,1572 15,-5 18,5 3,10 -230,442 -102,1053 68,1915 197,997 -85,1654 -515,1927l-1 1c179,474 15,1166 -728,1848 -647,595 -1111,1012 -1187,1504 9,13 0,19 -9,6 -490,-91 -1037,207 -1813,621 -894,476 -1604,399 -1990,69 -386,330 -1096,407 -1990,-69 -775,-413 -1323,-712 -1813,-621 -9,13 -17,7 -9,-6 -76,-492 -540,-910 -1187,-1504 -744,-684 -908,-1377 -727,-1851 -428,-274 -709,-931 -512,-1925 170,-862 298,-1473 68,-1915 -15,-5 -11,-15 3,-10 449,-216 714,-781 1096,-1572 441,-915 1061,-1272 1569,-1232l1 0c125,-492 659,-965 1664,-1093 872,-111 1491,-184 1838,-542 0,-15 10,-15 10,0 347,358 967,430 1838,542 1004,128 1538,600 1663,1093zm-154 205c484,-34 1073,308 1492,1178 365,757 618,1297 1047,1503 14,-5 17,5 3,9 -220,423 -98,1007 65,1831 188,953 -81,1582 -492,1842l-1 1c171,453 14,1115 -696,1767 -619,568 -1062,968 -1135,1438 9,12 0,18 -8,6 -468,-87 -992,198 -1733,593 -855,455 -1533,382 -1902,66 -369,315 -1048,389 -1902,-66 -741,-395 -1265,-681 -1733,-593 -9,12 -17,6 -8,-6 -73,-471 -516,-870 -1135,-1438 -711,-654 -868,-1317 -695,-1770 -410,-262 -677,-890 -489,-1841 163,-824 285,-1408 65,-1831 -14,-5 -11,-14 3,-9 429,-206 683,-746 1047,-1503 421,-875 1015,-1216 1500,-1178l0 0c119,-471 631,-922 1590,-1045 833,-106 1426,-176 1757,-518 0,-15 10,-15 10,0 332,342 924,412 1757,518 960,122 1471,574 1590,1045z"/>
  <path class="fil0" d="M9850 2041c484,-34 1073,308 1492,1178 365,757 618,1297 1047,1503 14,-5 17,5 3,9 -220,423 -98,1007 65,1831 188,953 -81,1582 -492,1842l-1 1c171,453 14,1115 -696,1767 -619,568 -1062,968 -1135,1438 9,12 0,18 -8,6 -468,-87 -992,198 -1733,593 -855,455 -1533,382 -1902,66 -369,315 -1048,389 -1902,-66 -741,-395 -1265,-681 -1733,-593 -9,12 -17,6 -8,-6 -73,-471 -516,-870 -1135,-1438 -711,-654 -868,-1317 -695,-1770 -410,-262 -677,-890 -489,-1841 163,-824 285,-1408 65,-1831 -14,-5 -11,-14 3,-9 429,-206 683,-746 1047,-1503 421,-875 1015,-1216 1500,-1178l0 0c119,-471 631,-922 1590,-1045 833,-106 1426,-176 1757,-518 0,-15 10,-15 10,0 332,342 924,412 1757,518 960,122 1471,574 1590,1045z"/>
  <path class="fil2" d="M6493 9796l-11 1c-770,-42 -1597,-71 -2272,-492 -660,-495 -970,-745 -1298,-1533 318,191 482,254 850,291l-22 -56c-440,-440 -918,-130 -918,-1164l0 -145 34 67 22 67 34 67c172,287 608,314 895,537l0 -34 0 -34 0 -22 -11 -34 -22 -45 -34 -45 -22 -22c-599,-399 -1024,-483 -794,-1477l45 -145 45 168 34 67c130,390 673,669 1018,850l-11 -56 -22 -45c-118,-353 -1727,-960 -403,-2137 -320,1067 329,1138 929,1858 167,-500 -1099,-596 -739,-1858 305,-712 820,-949 1533,-1153l246 -67 -168 78 -157 78c-390,260 -694,766 -694,1242l0 56 11 123 0 67c126,628 577,683 828,1309l11 123 0 67c-41,206 -164,293 -380,358 -365,110 17,431 56,548l11 34 0 45 -11 45 -22 56c-149,298 -683,779 -683,1097l11 56 11 56c117,702 1535,820 2070,862 535,-41 1953,-160 2070,-862l11 -56 11 -56c0,-318 -534,-799 -683,-1097l-22 -56 -11 -45 0 -45 11 -34c43,-130 399,-448 56,-548 -217,-64 -339,-152 -380,-358l0 -67 11 -123c251,-626 702,-681 828,-1309l0 -67 11 -123 0 -56c0,-476 -304,-982 -694,-1242l-157 -78 -168 -78 246 67c713,204 1228,440 1533,1153 360,1261 -905,1358 -739,1858 599,-719 1249,-791 929,-1858 1324,1177 -285,1784 -403,2137l-22 45 -11 56c346,-182 888,-461 1018,-850l34 -67 45 -168 45 145c229,994 -196,1078 -794,1477l-22 22 -34 45 -22 45 -11 34 0 22 0 34 0 34c287,-223 723,-250 895,-537l34 -67 22 -67 34 -67 0 145c0,1034 -477,724 -918,1164l-22 56c368,-37 532,-100 850,-291 -328,788 -638,1038 -1298,1533 -675,422 -1502,451 -2272,492l-11 -1z"/>
  <path class="fil3" d="M6493 9349c-147,-82 -265,-167 -425,-224 -334,-119 -684,-156 -1007,-302 -287,-130 -199,-261 -112,-481 111,-282 429,-691 582,-996 130,-260 145,-388 45,-671 -8,-22 -58,-44 -67,-22 -19,45 -13,112 -56,134 -51,26 -145,-19 -224,0 -348,84 61,317 112,470 34,68 -639,975 -727,1119 -85,137 -76,286 34,414 289,338 1267,630 1846,638 579,-7 1557,-299 1846,-638 109,-128 118,-277 34,-414 -89,-144 -761,-1051 -727,-1119 51,-153 460,-386 112,-470 -78,-19 -172,26 -224,0 -43,-22 -37,-90 -56,-134 -9,-22 -59,0 -67,22 -100,283 -85,411 45,671 153,305 470,714 582,996 87,220 175,352 -112,481 -323,146 -673,183 -1007,302 -160,57 -278,142 -425,224z"/>
  <path class="fil4" d="M6107 10916c0,-244 -51,-652 11,-873 38,-134 123,-182 246,-179 222,5 385,70 425,313l0 112c82,-65 52,-63 157,-90 201,0 292,116 224,269 -15,34 -30,67 -45,101 -37,84 -15,248 78,257 219,21 105,-448 101,-582l123 -22c9,162 69,1006 -201,1141 -60,40 -88,50 -157,67 -503,56 -1169,-391 -1399,67 -63,159 -29,226 123,302 221,89 578,97 817,67 331,-95 402,-204 615,-459 48,-58 161,-111 235,-112 158,-2 213,74 213,213 -96,-144 -137,-100 -213,0 -104,139 -306,383 -459,459 -238,117 -411,137 -671,123 -299,-16 -480,-36 -739,-190 -176,-105 -222,-263 -190,-448 69,-404 436,-502 795,-436 226,42 739,277 850,257 158,-28 235,-161 235,-325 -78,26 -101,62 -190,45 -136,-27 -209,-84 -235,-213 -34,-166 11,-336 11,-504l-78 34 0 604 -269 22c0,-250 0,-500 0,-750 0,-125 -49,-161 -145,-157 -83,3 -109,79 -112,145 -10,217 110,739 -157,739zm-403 78c-250,0 -392,-139 -392,-347l0 -414 291 0c0,157 0,313 0,470 0,151 213,234 213,78l0 -560 257 -11 11 459c-42,209 -140,276 -336,325l-45 0z"/>
  <polygon class="fil5" points="4255,2971 3875,2255 4020,2176 4557,2501 4311,2031 4445,1953 4826,2669 4680,2747 4154,2434 4401,2904 "/>
  <polygon class="fil5" points="5038,2602 4803,1829 5374,1650 5408,1785 4994,1908 5050,2087 5441,1964 5475,2098 5094,2210 5150,2422 5587,2288 5631,2422 "/>
  <polygon class="fil5" points="6169,2064 6157,1930 6515,1908 6538,2232 6504,2255 6471,2277 6437,2299 6392,2322 6292,2367 6191,2378 6135,2378 6079,2378 6023,2355 5967,2344 5922,2311 5889,2277 5844,2243 5822,2199 5799,2154 5777,2098 5766,2042 5755,1986 5755,1930 5766,1863 5777,1807 5799,1762 5822,1706 5855,1673 5889,1628 5945,1594 5978,1583 6023,1561 6079,1550 6135,1550 6202,1538 6269,1550 6292,1561 6325,1572 6348,1583 6370,1594 6415,1628 6448,1662 6471,1706 6493,1762 6336,1796 6303,1751 6280,1729 6258,1706 6236,1695 6202,1684 6180,1684 6146,1684 6113,1684 6090,1695 6068,1695 6045,1706 6023,1718 6001,1729 5978,1762 5956,1785 5945,1807 5934,1829 5934,1852 5922,1908 5922,1964 5934,2031 5945,2064 5945,2098 5967,2143 6001,2176 6034,2210 6079,2232 6124,2232 6180,2243 6225,2232 6280,2210 6325,2188 6359,2154 6359,2053 "/>
  <polygon class="fil5" points="6750,2355 6862,1550 7455,1628 7444,1762 7008,1706 6985,1885 7388,1941 7366,2076 6963,2020 6929,2243 7377,2299 7366,2434 "/>
  <path class="fil5" d="M7545 2467l269 -761 325 112 101 34 67 45 22 22 22 22 11 22 11 34 0 34 0 34 0 34 -11 34 -22 45 -22 34 -22 22 -34 22 -34 22 -45 0 -45 11 -45 -11 34 45 22 45 22 67 22 90 45 179 -190 -56 -45 -213 -34 -90 -11 -45 -22 -34 -22 -22 -22 -11 -45 -22 -34 -11 -112 325 -157 -56zm313 -380l112 34 90 34 45 0 34 0 22 -11 22 -22 11 -34 11 -34 0 -34 -11 -22 -11 -11 -11 -11 -22 -11 -112 -34 -112 -45 -67 201z"/>
  <polygon class="fil5" points="8328,2769 8686,2042 8832,2120 8474,2848 "/>
  <polygon class="fil5" points="9089,3239 9302,2982 9369,2422 9526,2546 9458,2915 9816,2781 9962,2904 9436,3083 9212,3340 "/>
  <path class="fil5" d="M9839 3351l45 -34 45 -34 45 -22 45 -11 67 -11 67 0 67 11 56 22 34 22 34 22 34 34 34 34 34 34 11 34 22 34 11 45 11 34 11 34 0 78 -22 78 -11 34 -22 34 -22 34 -34 34 -34 34 -34 34 -78 45 -34 22 -45 22 -34 11 -45 0 -34 11 -34 0 -45 -11 -34 -11 -34 -11 -34 -11 -34 -22 -34 -22 -56 -67 -11 -11 -22 -22 -22 -34 -11 -34 -11 -45 -11 -34 -11 -34 0 -78 11 -34 11 -34 11 -45 22 -34 56 -67 22 -22 45 -34zm101 123l-45 45 -34 45 -22 45 -11 45 -11 45 11 45 11 45 34 34 34 34 34 22 45 22 45 0 45 0 45 -11 56 -34 22 -11 34 -22 45 -45 34 -45 34 -45 11 -45 0 -45 -11 -45 -11 -34 -34 -45 -34 -34 -34 -22 -45 -22 -45 0 -45 0 -45 11 -56 34 -22 11 -34 22z"/>
  <polygon class="fil5" points="10555,4560 10678,4504 10824,4817 10533,4963 10499,4940 10466,4918 10387,4862 10354,4828 10320,4784 10264,4705 10242,4649 10231,4593 10219,4537 10219,4481 10231,4426 10242,4381 10264,4336 10298,4291 10331,4246 10376,4213 10421,4179 10466,4157 10521,4123 10577,4112 10645,4101 10700,4101 10745,4112 10801,4123 10857,4146 10902,4179 10936,4202 10969,4235 10991,4280 11025,4336 11047,4403 11070,4459 11070,4515 11070,4549 11070,4571 11059,4627 11036,4672 11003,4705 10980,4728 10958,4750 10857,4616 10880,4593 10902,4571 10913,4537 10913,4515 10913,4459 10913,4426 10891,4392 10868,4347 10835,4314 10801,4291 10756,4269 10712,4258 10656,4258 10633,4269 10611,4280 10544,4302 10488,4336 10443,4370 10410,4403 10387,4448 10365,4493 10365,4537 10376,4582 10387,4638 10421,4672 10454,4716 10499,4750 10533,4772 10633,4728 "/>
  <polygon class="fil5" points="10555,5399 10891,5310 11271,4907 11316,5086 11059,5354 11417,5444 11461,5634 10936,5466 10600,5556 "/>
  <path class="fil5" d="M10745 6619l-11 -168 179 -90 -34 -313 -190 -56 -11 -168 839 235 11 179 -783 380zm291 -313l291 -145 -302 -78 11 224z"/>
  <polygon class="fil5" points="10723,6764 11540,6865 11517,7022 11170,6977 11473,7346 11450,7559 11170,7223 10633,7480 10667,7268 11070,7100 10947,6954 10700,6921 "/>
  <path class="fil5" d="M10365 8297l67 -157 190 -11 112 -302 -157 -123 56 -168 671 560 -56 168 -884 34zm403 -168l325 -11 -246 -201 -78 213z"/>
  <path class="fil5" d="M10298 8420l705 425 -179 291 -67 90 -22 34 -22 22c-182,121 -399,-37 -347,-246l11 -45c-169,68 -258,56 -448,56l101 -168c114,-6 285,2 392,-34l22 -11 22 -22 22 -45 22 -22 -291 -179 78 -145zm325 380l-67 112 -45 78 -22 45 0 34 11 22c27,54 118,100 157,45l78 -112 67 -112 -179 -112z"/>
  <polygon class="fil5" points="9716,9271 10219,9730 10387,9551 10488,9640 10051,10121 9951,10020 10119,9853 9615,9394 "/>
  <path class="fil5" d="M8821 10099l134 -101 168 101 257 -213 -67 -179 134 -112 269 828 -134 112 -761 -436zm436 67l269 168 -101 -302 -168 134z"/>
  <polygon class="fil5" points="3494,10625 3371,10513 3662,10177 3740,10065 3752,10020 3763,9998 3752,9976 3752,9953 3729,9931 3696,9886 3640,9853 3617,9841 3595,9841 3550,9841 3517,9864 3472,9909 3416,9965 3125,10311 3002,10211 3282,9886 3360,9786 3416,9730 3472,9696 3494,9696 3528,9685 3584,9685 3640,9696 3673,9707 3707,9730 3774,9774 3819,9808 3852,9841 3897,9909 3919,9965 3919,9998 3919,10020 3919,10076 3908,10099 3897,10121 3875,10155 3852,10200 3774,10289 "/>
  <polygon class="fil5" points="3382,9427 2744,9931 2644,9808 2856,9226 2431,9562 2342,9439 2968,8924 3080,9058 2868,9640 3282,9304 "/>
  <polygon class="fil5" points="2868,8745 2174,9170 2084,9025 2789,8611 "/>
  <polygon class="fil5" points="2621,8264 1972,8823 1905,8667 2386,8264 1748,8297 1681,8141 2554,8107 "/>
  <polygon class="fil5" points="2409,7704 1614,7872 1480,7290 1625,7268 1715,7693 1883,7648 1804,7257 1939,7234 2017,7626 2241,7581 2140,7133 2274,7111 "/>
  <path class="fil5" d="M2263 6932l-817 11 0 -336 0 -112 11 -78 11 -34 22 -22 22 -22 22 -22 34 -11 22 -11 78 -11 34 0 45 11 22 11 11 0 34 22 34 34 22 34 11 45 11 45 34 -45 34 -45 56 -34 78 -56 157 -101 0 190 -179 123 -67 56 -45 34 -22 22 -11 22 -11 34 0 56 0 34 347 -11 0 168zm-470 -157l0 -123 -11 -90 -11 -56 -11 -22 -22 -22 -22 -11 -34 0 -45 0 -11 11 -11 11 -22 22 -11 34 0 123 0 123 213 0z"/>
  <polygon class="fil5" points="2006,6059 2017,5903 2062,5903 2095,5891 2118,5880 2140,5869 2163,5847 2185,5824 2196,5791 2207,5757 2207,5724 2207,5690 2207,5656 2196,5634 2185,5612 2163,5600 2151,5589 2129,5578 2095,5578 2073,5589 2062,5600 2051,5612 2028,5645 1972,5757 1939,5813 1916,5858 1883,5891 1860,5925 1816,5947 1771,5959 1726,5970 1704,5970 1681,5959 1648,5959 1625,5947 1569,5903 1558,5880 1536,5858 1525,5824 1514,5791 1502,5757 1502,5712 1514,5634 1536,5567 1547,5533 1558,5500 1592,5455 1625,5421 1648,5410 1670,5399 1715,5377 1771,5377 1827,5377 1804,5533 1771,5545 1748,5545 1726,5556 1704,5567 1681,5578 1670,5600 1659,5656 1648,5690 1648,5724 1659,5757 1659,5779 1681,5802 1704,5813 1737,5813 1760,5802 1782,5779 1793,5746 1838,5656 1894,5567 1905,5522 1928,5500 1950,5477 1972,5455 2006,5444 2028,5421 2062,5421 2095,5410 2129,5410 2163,5421 2196,5433 2230,5444 2286,5477 2308,5511 2319,5533 2342,5567 2353,5600 2353,5645 2353,5690 2353,5735 2342,5779 2330,5858 2297,5914 2263,5959 2230,6003 2185,6026 2129,6048 2073,6059 "/>
  <polygon class="fil5" points="2442,5310 1670,5063 1726,4907 2498,5153 "/>
  <polygon class="fil5" points="2633,4817 2017,4537 1916,4750 1793,4694 2062,4112 2185,4179 2084,4392 2700,4672 "/>
  <path class="fil5" d="M3293 3788l-112 134 -190 -56 -190 269 112 157 -101 145 -481 -727 112 -145 850 224zm-436 45l-313 -90 179 269 134 -179z"/>
  <polygon class="fil5" points="3170,3530 3282,3407 3304,3430 3337,3441 3371,3452 3405,3452 3427,3452 3461,3441 3483,3418 3517,3396 3528,3385 3539,3374 3561,3351 3572,3318 3572,3295 3572,3273 3572,3251 3561,3228 3550,3206 3528,3195 3505,3183 3483,3183 3438,3206 3326,3262 3270,3295 3214,3318 3170,3329 3136,3329 3091,3329 3047,3318 3002,3295 2968,3262 2946,3239 2935,3206 2912,3150 2912,3116 2912,3083 2923,3060 2935,3027 2946,2993 2968,2960 3035,2892 3058,2870 3080,2848 3136,2814 3192,2792 3248,2792 3270,2792 3293,2792 3349,2814 3371,2825 3393,2837 3438,2870 3315,2982 3293,2971 3270,2960 3226,2948 3203,2948 3170,2960 3147,2982 3125,3004 3080,3049 3069,3072 3058,3094 3069,3127 3080,3150 3091,3161 3102,3161 3114,3172 3125,3172 3158,3161 3192,3150 3282,3105 3371,3060 3449,3027 3505,3016 3572,3027 3628,3049 3651,3072 3673,3094 3696,3127 3718,3150 3729,3183 3740,3217 3740,3251 3740,3295 3729,3329 3718,3362 3673,3430 3651,3463 3606,3497 3584,3530 3550,3542 3494,3575 3472,3597 3438,3597 3393,3609 3337,3609 3282,3586 3226,3564 3203,3542 "/>
  <polyline class="fil6" points="8072,8465 8094,8521 8094,8577 8094,8622 8083,8644 8072,8678 8049,8711 8016,8756 7994,8778 7960,8790 7904,8823 7837,8846 7703,8902 7557,8935 7423,8969 7289,9002 7143,9047 6908,9136 6796,9181 6673,9226 6539,9293 6472,9316 6416,9349 "/>
  <polygon class="fil5" points="6427,6596 5655,6596 5599,6194 5722,6082 5991,6328 6304,6138 6438,6149 6584,6138 6908,6328 7165,6082 7289,6194 7244,6596 "/>
  <path class="fil5" d="M6416 6059l-168 11 -257 157 -67 -157 291 -1846 -213 -201 56 -179 123 22 67 101 34 -101 145 -11 179 11 45 101 67 -101 112 -22 56 179 -213 201 302 1846 -67 157 -257 -157 -235 -11zm27 -1872l43 90 43 90 -43 90 -3 5 0 395 3 5 43 90 -43 90 -3 5 0 503 3 5 43 90 -43 90 -43 90 -43 -90 -43 -90 43 -90 16 -34 0 -447 -16 -34 -43 -90 43 -90 16 -34 0 -338 -16 -34 -43 -90 43 -90 43 -90z"/>
  <path class="fil5" d="M6461 8297l0 850 -78 0 0 -850c-161,-121 -133,-380 45,-380 174,0 198,270 34,380z"/>
  <path class="fil7" d="M6763 3788l-302 22 -78 -470 22 -90 112 325 201 34 45 179zm-403 -806l-224 795 246 45 -90 -280 67 -560zm67 -526l-45 425 179 638 157 45 -235 -671 -56 -436z"/>
  <path class="fil5" d="M6427 6686l-604 34 0 839 -34 0c-107,0 -171,95 -101,168 61,64 189,2 241,-67l1035 0c56,56 186,137 246,45 32,-49 -8,-145 -101,-145l-45 0 0 -839 -638 -34zm-461 839l-9 -45 0 -671 470 0 504 0 0 671 0 45 -965 0z"/>
  <polygon class="fil8" points="6416,4325 6483,4325 6483,5724 6416,5724 "/>
  <polygon class="fil9" points="6443,4187 6485,4277 6528,4367 6485,4457 6443,4548 6400,4457 6357,4367 6400,4277 "/>
  <polygon class="fil9" points="6443,4773 6485,4863 6528,4953 6485,5043 6443,5134 6400,5043 6357,4953 6400,4863 "/>
  <polygon class="fil9" points="6443,5467 6485,5557 6528,5647 6485,5738 6443,5828 6400,5738 6357,5647 6400,5557 "/>
  <path class="fil5" d="M6396 9248c-467,-350 -831,-373 -1365,-526 -203,-51 -179,-392 45,-392 708,118 995,266 1320,918zm-638 -1186c-61,-28 -391,-141 -414,-157 -35,-46 -56,-101 -11,-145 146,-146 425,58 425,302zm101 392c-174,-43 -480,-128 -649,-168 -112,-26 -130,-185 -22,-257 335,-84 553,128 671,425z"/>
  <path class="fil5" d="M6436 9248c467,-350 831,-373 1365,-526 203,-51 179,-392 -45,-392 -708,118 -995,266 -1320,918zm638 -1186c61,-28 391,-141 414,-157 35,-46 56,-101 11,-145 -146,-146 -425,58 -425,302zm-101 392c174,-43 480,-128 649,-168 112,-26 130,-185 22,-257 -335,-84 -553,128 -671,425z"/>
  <path class="fil6" d="M5201 10815c0,90 -78,168 -168,168 -101,0 -179,-78 -179,-168 0,-101 78,-179 179,-179 90,0 168,78 168,179z"/>
  <path class="fil6" d="M8132 10815c0,90 -78,168 -168,168 -101,0 -179,-78 -179,-168 0,-101 78,-179 179,-179 90,0 168,78 168,179z"/>
  <path class="fil5" d="M5189 10815c0,78 -78,157 -157,157 -90,0 -168,-78 -168,-157 0,-90 78,-168 168,-168 78,0 157,78 157,168z"/>
  <path class="fil5" d="M8121 10815c0,78 -78,157 -157,157 -90,0 -168,-78 -168,-157 0,-90 78,-168 168,-168 78,0 157,78 157,168z"/>
 </g>
</svg>
